<svg data-v-0dd9719b="" version="1.0" xmlns="http://www.w3.org/2000/svg" xmlns:xlink="http://www.w3.org/1999/xlink" width="100%" height="100%" viewBox="0 0 340.000000 250.000000" preserveAspectRatio="xMidYMid meet" color-interpolation-filters="sRGB" style="margin: auto;"> <rect data-v-0dd9719b="" x="0" y="0" width="100%" height="100%" fill="#ffffff" fill-opacity="1" class="background"></rect> <rect data-v-0dd9719b="" x="0" y="0" width="100%" height="100%" fill="url(#watermark)" fill-opacity="1" class="watermarklayer"></rect> <g data-v-0dd9719b="" fill="#333" class="icon-text-wrapper icon-svg-group iconsvg" transform="translate(71.51499938972697,97.49945068359375)"><g class="iconsvg-imagesvg" transform="translate(0,0)"><g><rect fill="#333" fill-opacity="0" stroke-width="2" x="0" y="0" width="55" height="55.00110002200044" class="image-rect"></rect> <svg x="0" y="0" width="55" height="55.00110002200044" filtersec="colorsb2660222586" class="image-svg-svg primary" style="overflow: visible;"><svg xmlns="http://www.w3.org/2000/svg" viewBox="-0.0019585678819566965 0.0002686096995603293 163.05958557128906 163.06222534179688"><title>36</title><path d="M130.42 32.48a91.37 91.37 0 0 1-59.82 34c-22.55 3-33.09-7.69-30-28.18 4.14-27.72 37.76-38.23 77-29.87A81.57 81.57 0 0 0 .84 93.3a82.71 82.71 0 0 0 45.64 12.87 84.74 84.74 0 0 0 83.94-73.69" fill="#e37315"></path><path d="M130.42 32.48a91.37 91.37 0 0 1-59.82 34c-22.55 3-33.09-7.69-30-28.18 4.14-27.72 37.76-38.23 77-29.87a81.17 81.17 0 0 0-65-3.08c-16.6 8-25 21.43-27.85 34.92C17.08 77.08 43 93.57 77.1 83.86c19.23-5.47 40-20.46 53.32-51.38" fill="#efefeb" fill-rule="evenodd" opacity=".05"></path><path d="M136.67 36.75A91.56 91.56 0 0 1 46.48 113a90.92 90.92 0 0 1-43.93-11.18A82 82 0 0 0 27.94 143c17.24 4.35 42.35 5.1 64.39-5.54a84.75 84.75 0 0 0 44.34-100.7" fill="#016737" fill-rule="evenodd"></path><path d="M136.67 36.75A91.56 91.56 0 0 1 46.48 113a90.92 90.92 0 0 1-43.93-11.18A82 82 0 0 0 27.94 143c17.24 4.35 42.35 5.1 64.39-5.54a84.75 84.75 0 0 0 44.34-100.7" fill="#016737"></path><path d="M136.67 36.75A91.56 91.56 0 0 1 46.48 113a90.92 90.92 0 0 1-43.93-11.18 81.83 81.83 0 0 0 8.38 20.48 83.88 83.88 0 0 0 2.66 4.3c43.15 12.15 117.41-5.8 123.08-89.85" fill="#efefeb" fill-rule="evenodd" opacity=".05"></path><path d="M139.1 23.79a91.55 91.55 0 0 1-99.87 127.45A81.54 81.54 0 0 0 139.1 23.79" fill="#039"></path></svg></svg> <!----></g></g> <g transform="translate(62,6.694299697875977)"><g data-gra="path-name" fill-rule="" class="tp-name iconsvg-namesvg" transform="translate(0,0)"><g transform="scale(1)"><g><path d="M34.58-9.5L32.9-9.5 32.9-6.42 34-6.42 34-3.56 32.9-3.56 32.9-2.86Q32.9-1.47 31.83-0.59L31.83-0.59Q30.99 0.04 30 0.04L30 0.04 24.57 0.04 25.97-2.53 27.43-2.53Q27.8-2.53 28.02-2.75L28.02-2.75Q28.28-3.01 28.28-3.37L28.28-3.37 28.28-3.56 15.99-3.56Q14.67-3.56 13.75-4.49 12.84-5.43 12.84-6.71L12.84-6.71 12.84-9.5 11.37-9.5 11.37-12.76 12.84-12.76 12.84-19.58 32.9-19.58 32.9-12.76 34.58-12.76 34.58-9.5ZM14.19-26.55L19.69-26.55 18.85-24.79 34.47-24.79 34.47-21.13 11.81-21.13 14.19-26.55ZM5.57-12.18L2.09-20.5 4.66-20.5 2.09-26.55 7.23-26.55 10.64-18.3 8.14-18.3 10.64-12.18 5.57-12.18ZM7.23 0.11L2.09 0.11 5.57-10.45 10.64-10.45 7.23 0.11ZM17.35-16.39L17.35-12.76 21.05-12.76 20.39-15.48 24.21-15.48 25.01-12.76 28.28-12.76 28.28-16.39 17.35-16.39ZM28.28-6.42L28.28-9.5 17.35-9.5 17.35-7.59Q17.35-7.08 17.7-6.75 18.04-6.42 18.56-6.42L18.56-6.42 20.94-6.42 20.39-8.69 24.21-8.69 24.87-6.42 28.28-6.42ZM43.09-8L50.54-8 50.54-9.83 43.09-9.83 43.09-13.42 45.04-13.42 43.86-16.14 49.33-16.14 50.5-13.42 56.04-13.42 57.21-16.14 62.68-16.14 61.5-13.42 63.34-13.42 63.34-9.83 56.3-9.83 56.3-8 63.34-8 63.34-4.4 56.3-4.4 56.3 0 50.54 0 50.54-4.4 43.09-4.4 43.09-8ZM55.89-20.28L66.02-20.28Q66.79-20.28 67.45-19.99 68.11-19.69 68.6-19.2 69.1-18.7 69.39-18.03 69.68-17.35 69.68-16.58L69.68-16.58 69.68-3.63Q69.68-2.09 68.62-1.05 67.56 0 66.02 0L66.02 0 61.65 0 63.16-3.26 64-3.26Q64.4-3.26 64.71-3.58 65.03-3.89 65.03-4.33L65.03-4.33 65.03-15.88Q65.03-16.32 64.71-16.63 64.4-16.94 64-16.94L64-16.94 42.18-16.94 42.18 0 37.52 0 37.52-20.28 50.54-20.28 50.54-21.9 37.37-21.9 37.37-25.56 50.54-25.56 50.54-26.44 55.89-26.44 55.89-25.56 69.43-25.56 69.43-21.9 55.89-21.9 55.89-20.28ZM76.25-20.35L76.25 0.04 71.15 0.04 71.15-23.95 74.49-23.95 75.55-26.44 80.87-26.44 79.81-23.95 99.35-23.95Q100.16-23.95 100.89-23.64 101.63-23.33 102.18-22.78 102.73-22.23 103.06-21.49 103.39-20.76 103.39-19.95L103.39-19.95 103.39-4Q103.39-3.15 103.06-2.42 102.73-1.69 102.18-1.14 101.63-0.59 100.89-0.28 100.16 0.04 99.35 0.04L99.35 0.04 94.59 0.04 96.2-3.59 97.12-3.59Q97.63-3.59 97.96-3.92 98.29-4.25 98.29-4.73L98.29-4.73 98.29-19.18Q98.29-19.69 97.96-20.02 97.63-20.35 97.12-20.35L97.12-20.35 76.25-20.35ZM96.27-17.71L96.27-7.63Q96.27-6.78 95.96-6.05 95.65-5.32 95.1-4.77 94.55-4.22 93.82-3.91 93.08-3.59 92.24-3.59L92.24-3.59 78.27-3.59 78.27-17.71 96.27-17.71ZM91.18-8.36L91.18-14.12 83.36-14.12 83.36-7.23 90.04-7.23Q90.51-7.23 90.85-7.56 91.18-7.89 91.18-8.36L91.18-8.36ZM118.57-26.37L123.49-26.37 123.49-24.17 137.06-24.17 137.06-21.35 137.06-20.76 137.06-7.96Q137.06-6.49 136.03-5.46 135-4.44 133.54-4.44L133.54-4.44 123.49-4.44 123.49-0.07 118.57-0.07 118.57-4.44 104.97-4.44 104.97-4.77 104.97-7.85 104.97-20.76 104.97-21.35 104.97-24.17 118.57-24.17 118.57-26.37ZM109.88-7.85L118.57-7.85 118.57-20.76 109.88-20.76 109.88-7.85ZM132.14-20.76L123.49-20.76 123.49-7.85 131.33-7.85Q131.66-7.85 131.9-8.09 132.14-8.33 132.14-8.66L132.14-8.66 132.14-20.76Z" transform="translate(-2.0899999141693115, 26.549999237060547)"></path></g> <!----> <!----> <!----> <!----> <!----> <!----> <!----></g></g> <g data-gra="path-slogan" fill-rule="" class="tp-slogan iconsvg-slogansvg" fill="#333" transform="translate(3.9449996948242188,33.65999984741211)"><rect width="0"></rect> <rect x="130.0800018310547" width="0"></rect> <g transform="translate(0,0)"><g transform="scale(1)"><path d="M2.06-5.06L6.56-5.06L6.56-8.58L7.73-8.58L7.73 0L6.56 0L6.56-3.98L2.06-3.98L2.06 0L0.89 0L0.89-8.58L2.06-8.58L2.06-5.06ZM15.19 0L14.34-2.48L10.88-2.48L9.98 0L8.81 0L12.05-8.58L13.36-8.58L16.45 0L15.19 0ZM12.61-7.31L11.25-3.52L13.92-3.52L12.66-7.31L12.61-7.31ZM17.67-8.58L18.84-8.58L18.84 0L17.67 0L17.67-8.58ZM22.22-8.58L26.53-1.64L26.53-8.58L27.66-8.58L27.66 0L26.34 0L21.98-6.94L21.94-6.94L21.94 0L20.81 0L20.81-8.58L22.22-8.58ZM35.11 0L34.27-2.48L30.80-2.48L29.91 0L28.73 0L31.97-8.58L33.28-8.58L36.38 0L35.11 0ZM32.53-7.31L31.17-3.52L33.84-3.52L32.58-7.31L32.53-7.31ZM38.81-8.58L43.13-1.64L43.13-8.58L44.25-8.58L44.25 0L42.94 0L38.58-6.94L38.53-6.94L38.53 0L37.41 0L37.41-8.58L38.81-8.58ZM56.11-8.58L53.20-4.41L56.25 0L54.80 0L52.45-3.52L50.11 0L48.70 0L51.80-4.41L48.89-8.58L50.34-8.58L52.50-5.30L54.70-8.58L56.11-8.58ZM57.52-8.58L58.69-8.58L58.69 0L57.52 0L57.52-8.58ZM66.33 0L65.48-2.48L62.02-2.48L61.13 0L59.95 0L63.19-8.58L64.50-8.58L67.59 0L66.33 0ZM63.75-7.31L62.39-3.52L65.06-3.52L63.80-7.31L63.75-7.31ZM70.03-8.58L74.34-1.64L74.34-8.58L75.47-8.58L75.47 0L74.16 0L69.80-6.94L69.75-6.94L69.75 0L68.63 0L68.63-8.58L70.03-8.58ZM83.67-3.61L81.05-3.61L81.05-4.59L84.80-4.59L84.80 0L84.05 0L83.77-1.08Q82.78 0.09 80.95 0.14L80.95 0.14Q79.22 0.14 78.28-0.75L78.28-0.75Q76.88-2.06 76.92-4.36L76.92-4.36Q77.25-8.63 81-8.81L81-8.81Q84.19-8.63 84.66-6L84.66-6L83.53-6Q83.06-7.78 80.95-7.83L80.95-7.83Q78.28-7.64 78.14-4.31L78.14-4.31Q78.14-0.75 81-0.75L81-0.75Q82.03-0.75 82.78-1.31L82.78-1.31Q83.72-2.06 83.67-3.61L83.67-3.61ZM87.42-1.03L92.72-1.03L92.72 0L85.97 0L85.97-0.94L91.22-7.59L86.34-7.59L86.34-8.58L92.72-8.58L92.72-7.59L87.42-1.03ZM95.02-5.06L99.52-5.06L99.52-8.58L100.69-8.58L100.69 0L99.52 0L99.52-3.98L95.02-3.98L95.02 0L93.84 0L93.84-8.58L95.02-8.58L95.02-5.06ZM109.27-4.27L109.27-4.27Q109.08-7.64 106.27-7.83L106.27-7.83Q103.41-7.69 103.27-4.27L103.27-4.27Q103.41-0.94 106.27-0.80L106.27-0.80Q109.08-0.98 109.27-4.27ZM110.44-4.27L110.44-4.27Q110.16 0 106.27 0.14L106.27 0.14Q102.33 0 102.05-4.27L102.05-4.27Q102.28-8.72 106.27-8.81L106.27-8.81Q110.16-8.67 110.44-4.27ZM113.20-8.58L117.52-1.64L117.52-8.58L118.64-8.58L118.64 0L117.33 0L112.97-6.94L112.92-6.94L112.92 0L111.80 0L111.80-8.58L113.20-8.58ZM126.84-3.61L124.22-3.61L124.22-4.59L127.97-4.59L127.97 0L127.22 0L126.94-1.08Q125.95 0.09 124.13 0.14L124.13 0.14Q122.39 0.14 121.45-0.75L121.45-0.75Q120.05-2.06 120.09-4.36L120.09-4.36Q120.42-8.63 124.17-8.81L124.17-8.81Q127.36-8.63 127.83-6L127.83-6L126.70-6Q126.23-7.78 124.13-7.83L124.13-7.83Q121.45-7.64 121.31-4.31L121.31-4.31Q121.31-0.75 124.17-0.75L124.17-0.75Q125.20-0.75 125.95-1.31L125.95-1.31Q126.89-2.06 126.84-3.61L126.84-3.61Z" transform="translate(-0.890625, 8.8125)"></path></g></g></g></g></g><defs v-gra="od"></defs></svg>